<?xml version="1.0"?>
<mxfile host="www.draw.io" modified="2020-07-24T11:26:03.176Z" agent="5.0 (X11; Linux x86_64) AppleWebKit/537.36 (KHTML, like Gecko) Chrome/84.0.4147.89 Safari/537.36" etag="SOhUuvMCLRJLDeu5lSW0" version="13.5.1" pages="6">
  <diagram id="BN2IyII4hlTg_FPogeM1" name="Similar">
    <mxGraphModel dx="2" dy="1" grid="1" gridSize="10" guides="1" tooltips="1" connect="1" arrows="1" fold="1" page="1" pageScale="1" pageWidth="850" pageHeight="1100" math="1" shadow="0">
      <root>
        <mxCell id="hzD7GZjRA_Ul0kWXAUtm-0"/>
        <mxCell id="hzD7GZjRA_Ul0kWXAUtm-1" parent="hzD7GZjRA_Ul0kWXAUtm-0"/>
        <mxCell id="dL2zvHwQdTRsgJraIBgu-15" value="" style="endArrow=none;html=1;strokeWidth=12;fillColor=#e1d5e7;strokeColor=#9673a6;" parent="hzD7GZjRA_Ul0kWXAUtm-1" source="K2bFnda-e-zOiQ4gaR2c-24" target="K2bFnda-e-zOiQ4gaR2c-23" edge="1">
          <mxGeometry width="50" height="50" relative="1" as="geometry">
            <mxPoint x="744.5777507675033" y="462.1629751806972" as="sourcePoint"/>
            <mxPoint x="872.2841428235437" y="298.35850046381364" as="targetPoint"/>
          </mxGeometry>
        </mxCell>
        <mxCell id="dL2zvHwQdTRsgJraIBgu-16" value="" style="endArrow=none;html=1;strokeWidth=12;fillColor=#e1d5e7;strokeColor=#9673a6;" parent="hzD7GZjRA_Ul0kWXAUtm-1" source="K2bFnda-e-zOiQ4gaR2c-24" target="K2bFnda-e-zOiQ4gaR2c-21" edge="1">
          <mxGeometry width="50" height="50" relative="1" as="geometry">
            <mxPoint x="728.7470992048574" y="472.5482858506511" as="sourcePoint"/>
            <mxPoint x="438.1126489266032" y="547.550738156095" as="targetPoint"/>
          </mxGeometry>
        </mxCell>
        <mxCell id="dL2zvHwQdTRsgJraIBgu-17" value="" style="endArrow=none;html=1;strokeWidth=12;fillColor=#e1d5e7;strokeColor=#9673a6;" parent="hzD7GZjRA_Ul0kWXAUtm-1" source="K2bFnda-e-zOiQ4gaR2c-23" edge="1">
          <mxGeometry width="50" height="50" relative="1" as="geometry">
            <mxPoint x="886.8540830619048" y="295.8583972168322" as="sourcePoint"/>
            <mxPoint x="1010.0000032825554" y="374.6708592374402" as="targetPoint"/>
          </mxGeometry>
        </mxCell>
        <mxCell id="dL2zvHwQdTRsgJraIBgu-18" value="" style="endArrow=none;html=1;strokeWidth=12;fillColor=#e1d5e7;strokeColor=#9673a6;" parent="hzD7GZjRA_Ul0kWXAUtm-1" source="K2bFnda-e-zOiQ4gaR2c-21" target="K2bFnda-e-zOiQ4gaR2c-10" edge="1">
          <mxGeometry width="50" height="50" relative="1" as="geometry">
            <mxPoint x="427.3981156229108" y="540.1033817490659" as="sourcePoint"/>
            <mxPoint x="400.1660432131036" y="280.4152386838991" as="targetPoint"/>
          </mxGeometry>
        </mxCell>
        <mxCell id="dL2zvHwQdTRsgJraIBgu-4" value="" style="endArrow=none;html=1;strokeWidth=7;fillColor=#ffe6cc;strokeColor=#d79b00;" parent="hzD7GZjRA_Ul0kWXAUtm-1" edge="1">
          <mxGeometry width="50" height="50" relative="1" as="geometry">
            <mxPoint x="740.31" y="470.28999999999996" as="sourcePoint"/>
            <mxPoint x="880.31" y="290.28999999999996" as="targetPoint"/>
          </mxGeometry>
        </mxCell>
        <mxCell id="dL2zvHwQdTRsgJraIBgu-5" value="" style="endArrow=none;html=1;strokeWidth=7;fillColor=#ffe6cc;strokeColor=#d79b00;" parent="hzD7GZjRA_Ul0kWXAUtm-1" edge="1">
          <mxGeometry width="50" height="50" relative="1" as="geometry">
            <mxPoint x="740.31" y="470.28999999999996" as="sourcePoint"/>
            <mxPoint x="430.31" y="550.29" as="targetPoint"/>
          </mxGeometry>
        </mxCell>
        <mxCell id="dL2zvHwQdTRsgJraIBgu-6" value="" style="endArrow=none;html=1;strokeWidth=7;fillColor=#ffe6cc;strokeColor=#d79b00;" parent="hzD7GZjRA_Ul0kWXAUtm-1" edge="1">
          <mxGeometry width="50" height="50" relative="1" as="geometry">
            <mxPoint x="880.31" y="290.28999999999996" as="sourcePoint"/>
            <mxPoint x="1011.8887931111497" y="374.89710888891364" as="targetPoint"/>
          </mxGeometry>
        </mxCell>
        <mxCell id="dL2zvHwQdTRsgJraIBgu-7" value="" style="endArrow=none;html=1;strokeWidth=7;fillColor=#ffe6cc;strokeColor=#d79b00;" parent="hzD7GZjRA_Ul0kWXAUtm-1" edge="1">
          <mxGeometry width="50" height="50" relative="1" as="geometry">
            <mxPoint x="400.89146313306907" y="260.2904755001641" as="sourcePoint"/>
            <mxPoint x="400.31" y="220.2900000000001" as="targetPoint"/>
          </mxGeometry>
        </mxCell>
        <mxCell id="dL2zvHwQdTRsgJraIBgu-8" value="" style="endArrow=none;html=1;strokeWidth=7;fillColor=#ffe6cc;strokeColor=#d79b00;" parent="hzD7GZjRA_Ul0kWXAUtm-1" edge="1">
          <mxGeometry width="50" height="50" relative="1" as="geometry">
            <mxPoint x="391.06989683780427" y="218.31962417616924" as="sourcePoint"/>
            <mxPoint x="330.4203460919719" y="202.99544530279243" as="targetPoint"/>
          </mxGeometry>
        </mxCell>
        <mxCell id="dL2zvHwQdTRsgJraIBgu-9" value="" style="endArrow=none;html=1;strokeWidth=7;fillColor=#ffe6cc;strokeColor=#d79b00;" parent="hzD7GZjRA_Ul0kWXAUtm-1" edge="1">
          <mxGeometry width="50" height="50" relative="1" as="geometry">
            <mxPoint x="429.28554560725416" y="540.3426137501774" as="sourcePoint"/>
            <mxPoint x="402.038829749198" y="280.65598622266884" as="targetPoint"/>
          </mxGeometry>
        </mxCell>
        <mxCell id="K2bFnda-e-zOiQ4gaR2c-0" value="A&lt;br&gt;&lt;div&gt;&lt;br&gt;&lt;/div&gt;&lt;div&gt;&lt;br&gt;&lt;/div&gt;" style="whiteSpace=wrap;html=1;rounded=0;shadow=0;strokeWidth=1;fillColor=#6d8764;fontSize=24;align=right;strokeColor=#3A5431;" parent="hzD7GZjRA_Ul0kWXAUtm-1" vertex="1">
          <mxGeometry x="280" y="270" width="20" height="20" as="geometry"/>
        </mxCell>
        <mxCell id="K2bFnda-e-zOiQ4gaR2c-1" value="B&lt;br&gt;&lt;br&gt;&lt;div&gt;&lt;br&gt;&lt;/div&gt;" style="whiteSpace=wrap;html=1;rounded=0;shadow=0;strokeWidth=1;fillColor=#e51400;fontSize=24;align=right;strokeColor=#B20000;" parent="hzD7GZjRA_Ul0kWXAUtm-1" vertex="1">
          <mxGeometry x="970" y="420" width="20" height="20" as="geometry"/>
        </mxCell>
        <mxCell id="K2bFnda-e-zOiQ4gaR2c-2" value="" style="endArrow=none;html=1;strokeWidth=3;fillColor=#76608a;strokeColor=#B3B3B3;" parent="hzD7GZjRA_Ul0kWXAUtm-1" source="K2bFnda-e-zOiQ4gaR2c-24" target="K2bFnda-e-zOiQ4gaR2c-23" edge="1">
          <mxGeometry width="50" height="50" relative="1" as="geometry">
            <mxPoint x="740" y="470" as="sourcePoint"/>
            <mxPoint x="880" y="320" as="targetPoint"/>
          </mxGeometry>
        </mxCell>
        <mxCell id="K2bFnda-e-zOiQ4gaR2c-3" value="" style="endArrow=none;html=1;strokeWidth=3;fillColor=#76608a;strokeColor=#B3B3B3;" parent="hzD7GZjRA_Ul0kWXAUtm-1" source="K2bFnda-e-zOiQ4gaR2c-24" target="K2bFnda-e-zOiQ4gaR2c-21" edge="1">
          <mxGeometry width="50" height="50" relative="1" as="geometry">
            <mxPoint x="720" y="500" as="sourcePoint"/>
            <mxPoint x="470" y="570" as="targetPoint"/>
          </mxGeometry>
        </mxCell>
        <mxCell id="K2bFnda-e-zOiQ4gaR2c-4" value="" style="endArrow=none;html=1;strokeWidth=3;fillColor=#76608a;strokeColor=#B3B3B3;" parent="hzD7GZjRA_Ul0kWXAUtm-1" source="K2bFnda-e-zOiQ4gaR2c-23" target="K2bFnda-e-zOiQ4gaR2c-12" edge="1">
          <mxGeometry width="50" height="50" relative="1" as="geometry">
            <mxPoint x="880" y="290" as="sourcePoint"/>
            <mxPoint x="940" y="370" as="targetPoint"/>
          </mxGeometry>
        </mxCell>
        <mxCell id="K2bFnda-e-zOiQ4gaR2c-5" value="" style="endArrow=none;html=1;strokeWidth=3;fillColor=#76608a;strokeColor=#B3B3B3;" parent="hzD7GZjRA_Ul0kWXAUtm-1" edge="1">
          <mxGeometry width="50" height="50" relative="1" as="geometry">
            <mxPoint x="610" y="390" as="sourcePoint"/>
            <mxPoint x="880" y="290" as="targetPoint"/>
          </mxGeometry>
        </mxCell>
        <mxCell id="K2bFnda-e-zOiQ4gaR2c-6" value="" style="endArrow=none;html=1;strokeWidth=3;fillColor=#76608a;strokeColor=#B3B3B3;" parent="hzD7GZjRA_Ul0kWXAUtm-1" edge="1">
          <mxGeometry width="50" height="50" relative="1" as="geometry">
            <mxPoint x="430" y="550" as="sourcePoint"/>
            <mxPoint x="820" y="200" as="targetPoint"/>
          </mxGeometry>
        </mxCell>
        <mxCell id="K2bFnda-e-zOiQ4gaR2c-7" value="" style="endArrow=none;html=1;strokeWidth=3;fillColor=#76608a;strokeColor=#B3B3B3;" parent="hzD7GZjRA_Ul0kWXAUtm-1" source="K2bFnda-e-zOiQ4gaR2c-10" edge="1">
          <mxGeometry width="50" height="50" relative="1" as="geometry">
            <mxPoint x="430" y="550" as="sourcePoint"/>
            <mxPoint x="400" y="220" as="targetPoint"/>
          </mxGeometry>
        </mxCell>
        <mxCell id="K2bFnda-e-zOiQ4gaR2c-8" value="" style="endArrow=none;html=1;strokeWidth=3;fillColor=#76608a;strokeColor=#B3B3B3;" parent="hzD7GZjRA_Ul0kWXAUtm-1" edge="1">
          <mxGeometry width="50" height="50" relative="1" as="geometry">
            <mxPoint x="820" y="200" as="sourcePoint"/>
            <mxPoint x="480" y="240" as="targetPoint"/>
          </mxGeometry>
        </mxCell>
        <mxCell id="K2bFnda-e-zOiQ4gaR2c-9" value="" style="endArrow=none;html=1;strokeWidth=3;fillColor=#76608a;strokeColor=#B3B3B3;exitX=0;exitY=0.5;exitDx=0;exitDy=0;" parent="hzD7GZjRA_Ul0kWXAUtm-1" source="K2bFnda-e-zOiQ4gaR2c-11" edge="1">
          <mxGeometry width="50" height="50" relative="1" as="geometry">
            <mxPoint x="480" y="240" as="sourcePoint"/>
            <mxPoint x="160" y="160" as="targetPoint"/>
          </mxGeometry>
        </mxCell>
        <mxCell id="K2bFnda-e-zOiQ4gaR2c-10" value="" style="ellipse;whiteSpace=wrap;html=1;aspect=fixed;fillColor=#d5e8d4;strokeColor=#82b366;rotation=5;" parent="hzD7GZjRA_Ul0kWXAUtm-1" vertex="1">
          <mxGeometry x="390.47" y="260" width="20.42" height="20.42" as="geometry"/>
        </mxCell>
        <mxCell id="K2bFnda-e-zOiQ4gaR2c-11" value="" style="ellipse;whiteSpace=wrap;html=1;aspect=fixed;fillColor=#d5e8d4;strokeColor=#82b366;rotation=5;" parent="hzD7GZjRA_Ul0kWXAUtm-1" vertex="1">
          <mxGeometry x="310" y="190" width="20.42" height="20.42" as="geometry"/>
        </mxCell>
        <mxCell id="K2bFnda-e-zOiQ4gaR2c-12" value="" style="ellipse;whiteSpace=wrap;html=1;aspect=fixed;fillColor=#f8cecc;strokeColor=#b85450;" parent="hzD7GZjRA_Ul0kWXAUtm-1" vertex="1">
          <mxGeometry x="1010" y="370" width="20" height="20" as="geometry"/>
        </mxCell>
        <mxCell id="K2bFnda-e-zOiQ4gaR2c-13" value="&lt;font style=&quot;font-size: 22px&quot;&gt;M&lt;/font&gt;" style="text;html=1;strokeColor=none;fillColor=none;align=center;verticalAlign=middle;whiteSpace=wrap;rounded=0;" parent="hzD7GZjRA_Ul0kWXAUtm-1" vertex="1">
          <mxGeometry x="790" y="160" width="40" height="20" as="geometry"/>
        </mxCell>
        <mxCell id="K2bFnda-e-zOiQ4gaR2c-15" value="&lt;font style=&quot;font-size: 16px&quot;&gt;`c_2^A`&lt;/font&gt;" style="text;html=1;strokeColor=none;fillColor=none;align=center;verticalAlign=middle;whiteSpace=wrap;rounded=0;fontColor=#000000;" parent="hzD7GZjRA_Ul0kWXAUtm-1" vertex="1">
          <mxGeometry x="360" y="280.41999999999996" width="40" height="20" as="geometry"/>
        </mxCell>
        <mxCell id="K2bFnda-e-zOiQ4gaR2c-16" style="edgeStyle=orthogonalEdgeStyle;rounded=0;orthogonalLoop=1;jettySize=auto;html=1;exitX=0.5;exitY=1;exitDx=0;exitDy=0;strokeColor=#B3B3B3;strokeWidth=3;fontColor=#000000;" parent="hzD7GZjRA_Ul0kWXAUtm-1" source="K2bFnda-e-zOiQ4gaR2c-14" target="K2bFnda-e-zOiQ4gaR2c-14" edge="1">
          <mxGeometry relative="1" as="geometry"/>
        </mxCell>
        <mxCell id="K2bFnda-e-zOiQ4gaR2c-17" value="" style="ellipse;whiteSpace=wrap;html=1;aspect=fixed;fillColor=#f5f5f5;strokeColor=#666666;rotation=5;fontColor=#333333;" parent="hzD7GZjRA_Ul0kWXAUtm-1" vertex="1">
          <mxGeometry x="1150" y="460" width="20" height="20" as="geometry"/>
        </mxCell>
        <mxCell id="K2bFnda-e-zOiQ4gaR2c-18" value="" style="ellipse;whiteSpace=wrap;html=1;aspect=fixed;fillColor=#1ba1e2;strokeColor=#006EAF;rotation=5;fontColor=#ffffff;" parent="hzD7GZjRA_Ul0kWXAUtm-1" vertex="1">
          <mxGeometry x="390.47" y="210.42" width="20" height="20" as="geometry"/>
        </mxCell>
        <mxCell id="K2bFnda-e-zOiQ4gaR2c-19" value="" style="ellipse;whiteSpace=wrap;html=1;aspect=fixed;fillColor=#f5f5f5;strokeColor=#666666;rotation=5;fontColor=#333333;" parent="hzD7GZjRA_Ul0kWXAUtm-1" vertex="1">
          <mxGeometry x="469.99999999999994" y="230.42" width="20" height="20" as="geometry"/>
        </mxCell>
        <mxCell id="K2bFnda-e-zOiQ4gaR2c-20" value="" style="ellipse;whiteSpace=wrap;html=1;aspect=fixed;fillColor=#f5f5f5;strokeColor=#666666;rotation=5;fontColor=#333333;" parent="hzD7GZjRA_Ul0kWXAUtm-1" vertex="1">
          <mxGeometry x="810" y="190.42" width="20" height="20" as="geometry"/>
        </mxCell>
        <mxCell id="K2bFnda-e-zOiQ4gaR2c-21" value="" style="ellipse;whiteSpace=wrap;html=1;aspect=fixed;fillColor=#1ba1e2;strokeColor=#006EAF;rotation=5;fontColor=#ffffff;" parent="hzD7GZjRA_Ul0kWXAUtm-1" vertex="1">
          <mxGeometry x="420" y="540" width="20" height="20" as="geometry"/>
        </mxCell>
        <mxCell id="K2bFnda-e-zOiQ4gaR2c-22" value="" style="ellipse;whiteSpace=wrap;html=1;aspect=fixed;fillColor=#f5f5f5;strokeColor=#666666;rotation=5;fontColor=#333333;" parent="hzD7GZjRA_Ul0kWXAUtm-1" vertex="1">
          <mxGeometry x="600" y="380" width="20" height="20" as="geometry"/>
        </mxCell>
        <mxCell id="K2bFnda-e-zOiQ4gaR2c-23" value="" style="ellipse;whiteSpace=wrap;html=1;aspect=fixed;fillColor=#1ba1e2;strokeColor=#006EAF;rotation=5;fontColor=#ffffff;" parent="hzD7GZjRA_Ul0kWXAUtm-1" vertex="1">
          <mxGeometry x="870" y="280.41999999999996" width="20" height="20" as="geometry"/>
        </mxCell>
        <mxCell id="K2bFnda-e-zOiQ4gaR2c-24" value="" style="ellipse;whiteSpace=wrap;html=1;aspect=fixed;fillColor=#1ba1e2;strokeColor=#006EAF;rotation=5;fontColor=#ffffff;" parent="hzD7GZjRA_Ul0kWXAUtm-1" vertex="1">
          <mxGeometry x="730" y="460" width="20" height="20" as="geometry"/>
        </mxCell>
        <mxCell id="K2bFnda-e-zOiQ4gaR2c-25" value="" style="ellipse;whiteSpace=wrap;html=1;aspect=fixed;fillColor=#f5f5f5;strokeColor=#666666;rotation=5;fontColor=#333333;" parent="hzD7GZjRA_Ul0kWXAUtm-1" vertex="1">
          <mxGeometry x="149.99999999999994" y="150" width="20" height="20" as="geometry"/>
        </mxCell>
        <mxCell id="K2bFnda-e-zOiQ4gaR2c-26" value="&lt;div&gt;&lt;font style=&quot;font-size: 16px&quot;&gt;`c_1^B`&lt;/font&gt;&lt;/div&gt;" style="text;html=1;strokeColor=none;fillColor=none;align=center;verticalAlign=middle;whiteSpace=wrap;rounded=0;fontColor=#000000;" parent="hzD7GZjRA_Ul0kWXAUtm-1" vertex="1">
          <mxGeometry x="1010" y="339.99999999999994" width="40" height="20" as="geometry"/>
        </mxCell>
        <mxCell id="dL2zvHwQdTRsgJraIBgu-0" value="" style="endArrow=none;html=1;strokeWidth=3;fillColor=#76608a;strokeColor=#B3B3B3;" parent="hzD7GZjRA_Ul0kWXAUtm-1" source="K2bFnda-e-zOiQ4gaR2c-19" target="K2bFnda-e-zOiQ4gaR2c-18" edge="1">
          <mxGeometry width="50" height="50" relative="1" as="geometry">
            <mxPoint x="490" y="250.0000000000001" as="sourcePoint"/>
            <mxPoint x="170" y="170.0000000000001" as="targetPoint"/>
          </mxGeometry>
        </mxCell>
        <mxCell id="dL2zvHwQdTRsgJraIBgu-1" value="" style="endArrow=none;html=1;strokeWidth=3;fillColor=#76608a;strokeColor=#B3B3B3;" parent="hzD7GZjRA_Ul0kWXAUtm-1" source="K2bFnda-e-zOiQ4gaR2c-18" target="K2bFnda-e-zOiQ4gaR2c-11" edge="1">
          <mxGeometry width="50" height="50" relative="1" as="geometry">
            <mxPoint x="400.76658894558864" y="228.00260183065996" as="sourcePoint"/>
            <mxPoint x="170" y="170.0000000000001" as="targetPoint"/>
          </mxGeometry>
        </mxCell>
        <mxCell id="dL2zvHwQdTRsgJraIBgu-2" value="" style="endArrow=none;html=1;strokeWidth=3;fillColor=#76608a;strokeColor=#B3B3B3;" parent="hzD7GZjRA_Ul0kWXAUtm-1" source="K2bFnda-e-zOiQ4gaR2c-12" target="K2bFnda-e-zOiQ4gaR2c-17" edge="1">
          <mxGeometry width="50" height="50" relative="1" as="geometry">
            <mxPoint x="890" y="320" as="sourcePoint"/>
            <mxPoint x="1170" y="500" as="targetPoint"/>
          </mxGeometry>
        </mxCell>
        <mxCell id="dL2zvHwQdTRsgJraIBgu-3" value="" style="endArrow=none;html=1;strokeWidth=3;fillColor=#76608a;strokeColor=#B3B3B3;" parent="hzD7GZjRA_Ul0kWXAUtm-1" source="K2bFnda-e-zOiQ4gaR2c-21" target="K2bFnda-e-zOiQ4gaR2c-10" edge="1">
          <mxGeometry width="50" height="50" relative="1" as="geometry">
            <mxPoint x="440" y="560" as="sourcePoint"/>
            <mxPoint x="410" y="230.0000000000001" as="targetPoint"/>
          </mxGeometry>
        </mxCell>
        <mxCell id="K2bFnda-e-zOiQ4gaR2c-14" value="&lt;font style=&quot;font-size: 16px&quot;&gt;`c_1^A`&lt;/font&gt;" style="text;html=1;strokeColor=none;fillColor=none;align=center;verticalAlign=middle;whiteSpace=wrap;rounded=0;fontColor=#000000;" parent="hzD7GZjRA_Ul0kWXAUtm-1" vertex="1">
          <mxGeometry x="290.42" y="160" width="40" height="20" as="geometry"/>
        </mxCell>
      </root>
    </mxGraphModel>
  </diagram>
</mxfile>
